<svg width="115" height="115" viewBox="0 0 115 115" fill="none" xmlns="http://www.w3.org/2000/svg">
<path d="M57.5 115C89.2564 115 115 89.2564 115 57.5C115 25.7436 89.2564 0 57.5 0C25.7436 0 0 25.7436 0 57.5C0 89.2564 25.7436 115 57.5 115Z" fill="#FFF0F0"/>
<path d="M55.1801 56.176C55.1801 56.176 55.23 56.295 55.27 56.343C57.63 61.951 53.48 68.157 47.46 68.157C42.8 68.157 39 64.331 39 59.644C39 54.956 42.8 51.142 47.46 51.142C50.91 51.142 53.8701 53.21 55.1801 56.176ZM57.97 56.929C58.5 58.986 58.43 61.317 57.63 63.446H93.62C94.93 63.446 96 62.37 96 61.054V59.799C96 58.22 94.72 56.929 93.14 56.929H57.97ZM85.77 47.865C84.4 51.201 79.73 51.297 78.23 48.008L76.3199 43.811C73.1899 44.78 70.91 47.709 70.91 51.177V54.537H93.3V51.177C93.3 47.554 90.8 44.505 87.46 43.692L85.77 47.865ZM75.9301 34.257C75.9301 37.677 78.7 40.463 82.1 40.463C85.51 40.463 88.28 37.677 88.28 34.257C88.28 30.838 85.51 28.051 82.1 28.051C78.7 28.051 75.9301 30.838 75.9301 34.257ZM83.5601 46.956L84.97 43.465H78.77L80.39 47.016C80.99 48.379 82.9901 48.391 83.5601 46.956ZM37.87 35.238V21.392C37.87 20.076 38.93 19 40.25 19H63.09C64.4 19 65.47 20.076 65.47 21.392V35.238C65.47 36.554 64.4 37.63 63.09 37.63H60.83C58.82 37.63 57.1801 39.28 57.1801 41.301C57.1801 44.135 57.23 44.075 57.11 44.135C56.98 44.195 57.41 44.541 51.41 38.67C50.72 38.001 49.82 37.63 48.87 37.63H40.25C38.93 37.63 37.87 36.554 37.87 35.238ZM42.72 24.871C42.72 25.541 43.25 26.067 43.91 26.067H59.72C60.37 26.067 60.91 25.541 60.91 24.871C60.91 24.202 60.37 23.675 59.72 23.675H43.91C43.25 23.675 42.72 24.214 42.72 24.871ZM42.72 31.878C42.72 32.536 43.25 33.074 43.91 33.074H59.72C60.37 33.074 60.91 32.536 60.91 31.878C60.91 31.221 60.37 30.683 59.72 30.683H43.91C43.25 30.683 42.72 31.221 42.72 31.878ZM62.51 79.051C62.51 74.806 59.07 71.351 54.85 71.351H40.09C35.86 71.351 32.4301 74.806 32.4301 79.051V86.56L62.51 86.596V79.051ZM28.1899 88.952L67.53 89C68.19 89 68.72 88.462 68.72 87.804C68.72 87.147 68.2 86.608 67.53 86.608H62.51H32.42L32.4301 86.56L28.1899 86.561C27.5399 86.561 27 87.099 27 87.756C27 88.414 27.5399 88.952 28.1899 88.952Z" fill="#DA2128"/>
</svg>
