<svg width="18" height="19" viewBox="0 0 18 19" fill="none" xmlns="http://www.w3.org/2000/svg">
<path d="M8.15625 4.46875C8.15625 4.01172 8.50781 3.625 9 3.625C9.45703 3.625 9.84375 4.01172 9.84375 4.46875V8.82812L12.832 10.7969C13.2188 11.0781 13.3242 11.6055 13.043 11.9922C12.7969 12.3789 12.2695 12.4844 11.8828 12.2031L8.50781 9.95312C8.29688 9.8125 8.15625 9.53125 8.15625 9.25V4.46875ZM9 0.25C13.957 0.25 18 4.29297 18 9.25C18 14.2422 13.957 18.25 9 18.25C4.00781 18.25 0 14.2422 0 9.25C0 4.29297 4.00781 0.25 9 0.25ZM1.6875 9.25C1.6875 13.293 4.95703 16.5625 9 16.5625C13.0078 16.5625 16.3125 13.293 16.3125 9.25C16.3125 5.24219 13.0078 1.9375 9 1.9375C4.95703 1.9375 1.6875 5.24219 1.6875 9.25Z" fill="#E0302D"/>
</svg>
