<svg width="115" height="115" viewBox="0 0 115 115" fill="none" xmlns="http://www.w3.org/2000/svg">
<path d="M57.5 115C89.2564 115 115 89.2564 115 57.5C115 25.7436 89.2564 0 57.5 0C25.7436 0 0 25.7436 0 57.5C0 89.2564 25.7436 115 57.5 115Z" fill="#FFF0F0"/>
<path fill-rule="evenodd" clip-rule="evenodd" d="M49.16 37.523C46.118 40.541 44.598 44.493 44.598 48.447C44.598 52.401 46.118 56.354 49.16 59.37C52.203 62.385 56.187 63.896 60.173 63.896C64.16 63.896 68.145 62.388 71.186 59.37C74.226 56.352 75.749 52.401 75.749 48.447C75.749 44.493 74.229 40.539 71.186 37.523C68.143 34.505 64.16 32.998 60.173 32.998C56.187 32.998 52.201 34.505 49.16 37.523ZM35.286 26.272H36.532V78.47C36.532 81.266 38.829 83.542 41.648 83.542H77.841V84.741C77.841 86.537 76.364 88 74.555 88H35.286C33.475 88 32 86.534 32 84.741V29.534C31.997 27.738 33.475 26.272 35.286 26.272ZM79.248 60.212L81.166 62.115L73.863 69.359L71.945 67.456L79.248 60.212ZM70.038 62.667C70.321 62.474 70.6 62.272 70.874 62.059C71.445 61.616 71.982 61.148 72.479 60.655C72.979 60.159 73.451 59.627 73.894 59.061C74.109 58.789 74.313 58.514 74.507 58.231L76.694 60.179L71.999 64.836L70.038 62.667ZM76.262 69.544L82.969 76.953C84.065 78.163 85.503 78.25 86.78 77.715C87.399 77.454 87.992 77.045 88.5 76.541C89.009 76.037 89.421 75.451 89.684 74.837C90.224 73.573 90.136 72.144 88.916 71.057L81.446 64.405L76.262 69.544ZM47.866 36.242C44.467 39.613 42.77 44.029 42.77 48.449C42.77 52.868 44.467 57.284 47.866 60.656C51.265 64.027 55.717 65.711 60.173 65.711C63.026 65.711 65.882 65.019 68.459 63.634L70.711 66.12L70.007 66.818C69.651 67.171 69.651 67.745 70.007 68.101L73.219 71.287C73.575 71.64 74.154 71.64 74.513 71.287L74.974 70.831L81.616 78.169C82.33 78.96 83.133 79.444 83.969 79.68C83.483 80.879 82.297 81.731 80.918 81.731L41.645 81.728C39.834 81.728 38.36 80.263 38.36 78.469V23.259C38.36 21.463 39.837 20 41.645 20H70.278V28.836C70.278 31.632 72.575 33.91 75.395 33.91H84.201V64.43L82.737 63.127L83.107 62.759C83.463 62.406 83.463 61.832 83.107 61.476L79.895 58.29C79.539 57.937 78.96 57.937 78.601 58.29L77.988 58.898L75.482 56.665C76.878 54.109 77.576 51.279 77.576 48.446C77.576 44.026 75.878 39.61 72.479 36.239C69.081 32.868 64.628 31.184 60.173 31.184C55.72 31.184 51.265 32.871 47.866 36.242ZM72.109 20V28.835C72.109 30.631 73.587 32.094 75.395 32.094H84.201L72.109 20ZM52.254 40.591C54.441 38.422 57.308 37.337 60.173 37.337C63.04 37.337 65.905 38.422 68.092 40.591C70.278 42.76 71.372 45.604 71.372 48.445C71.372 51.289 70.278 54.131 68.092 56.3C65.905 58.469 63.037 59.553 60.173 59.553C57.305 59.553 54.441 58.469 52.254 56.3C50.067 54.131 48.974 51.287 48.974 48.445C48.974 45.604 50.067 42.759 52.254 40.591ZM58.023 50.312C58.399 49.978 58.972 50.012 59.308 50.382C59.645 50.755 59.611 51.326 59.238 51.657C58.842 52.007 58.387 52.285 57.893 52.472C57.41 52.654 56.89 52.755 56.348 52.755C55.147 52.755 54.062 52.273 53.277 51.494C52.491 50.715 52.005 49.636 52.005 48.448C52.005 47.257 52.491 46.181 53.277 45.402C54.062 44.623 55.15 44.141 56.348 44.141C56.89 44.141 57.413 44.242 57.893 44.424C58.387 44.612 58.842 44.889 59.238 45.24C59.614 45.57 59.645 46.142 59.308 46.515C58.972 46.887 58.399 46.918 58.023 46.585C57.8 46.389 57.537 46.229 57.243 46.117C56.966 46.01 56.664 45.954 56.348 45.954C55.653 45.954 55.023 46.235 54.568 46.686C54.113 47.137 53.831 47.762 53.831 48.451C53.831 49.14 54.113 49.765 54.568 50.216C55.023 50.668 55.653 50.948 56.348 50.948C56.664 50.948 56.966 50.889 57.243 50.785C57.537 50.67 57.8 50.511 58.023 50.312ZM60.501 45.405C60.297 44.948 60.506 44.413 60.97 44.211C61.43 44.01 61.97 44.217 62.173 44.674L64.385 49.62L66.597 44.674C66.801 44.217 67.34 44.007 67.801 44.211C68.261 44.413 68.473 44.946 68.27 45.405L65.222 52.22L65.216 52.234L65.213 52.243L65.21 52.248C65.208 52.257 65.202 52.265 65.196 52.273C65.191 52.285 65.185 52.293 65.179 52.301L65.171 52.315L65.168 52.321L65.157 52.338V52.341C65.145 52.358 65.134 52.377 65.12 52.391L65.117 52.394L65.106 52.408L65.103 52.411C65.094 52.422 65.086 52.43 65.078 52.442L65.063 52.456L65.061 52.461L64.973 52.548C64.962 52.556 64.953 52.565 64.942 52.573L64.939 52.576L64.925 52.587L64.922 52.59C64.905 52.604 64.888 52.615 64.871 52.627H64.868L64.852 52.638L64.846 52.641L64.832 52.649C64.823 52.655 64.812 52.66 64.804 52.666C64.795 52.669 64.787 52.674 64.778 52.68L64.772 52.683L64.764 52.685L64.75 52.691L64.744 52.694L64.73 52.699L64.722 52.702L64.71 52.708L64.696 52.713L64.693 52.716C64.603 52.75 64.51 52.767 64.416 52.769H64.351C64.258 52.767 64.165 52.75 64.075 52.716L64.072 52.713L64.058 52.708L64.046 52.702L64.035 52.691L64.021 52.685L64.015 52.683L64.001 52.677L63.993 52.674L63.987 52.671C63.979 52.666 63.97 52.663 63.962 52.657C63.953 52.652 63.942 52.646 63.933 52.641L63.919 52.632L63.914 52.629L63.897 52.618H63.894C63.877 52.607 63.857 52.596 63.843 52.582L63.84 52.579L63.826 52.568L63.823 52.565C63.812 52.556 63.803 52.548 63.792 52.54L63.789 52.537L63.775 52.526L63.682 52.433C63.673 52.422 63.665 52.414 63.656 52.402L63.654 52.4L63.642 52.386L63.64 52.383C63.628 52.366 63.617 52.349 63.606 52.332V52.329L63.594 52.313L63.592 52.307L63.583 52.293C63.577 52.282 63.572 52.273 63.566 52.265C63.56 52.257 63.558 52.248 63.552 52.24L63.549 52.234L63.546 52.226L63.541 52.212L60.501 45.405ZM47.146 48.446C47.146 45.139 48.417 41.829 50.963 39.308C53.508 36.783 56.842 35.522 60.175 35.522C63.509 35.522 66.846 36.783 69.388 39.308C71.931 41.83 73.205 45.139 73.205 48.446C73.205 51.752 71.934 55.059 69.388 57.583C66.843 60.108 63.509 61.369 60.175 61.369C56.842 61.369 53.508 60.108 50.963 57.583C48.417 55.061 47.146 51.755 47.146 48.446Z" fill="#DA2128"/>
</svg>
