<svg width="40" height="40" viewBox="0 0 40 40" fill="none" xmlns="http://www.w3.org/2000/svg">
<path d="M19.1934 19.5402C19.1934 19.5402 19.2107 19.5816 19.2247 19.5983C20.0455 21.5489 18.602 23.7075 16.5081 23.7075C14.8872 23.7075 13.5655 22.3767 13.5655 20.7464C13.5655 19.1158 14.8872 17.7892 16.5081 17.7892C17.7081 17.7892 18.7377 18.5085 19.1934 19.5402ZM20.1638 19.8021C20.3481 20.5176 20.3238 21.3283 20.0455 22.0688H32.5638C33.0194 22.0688 33.3916 21.6946 33.3916 21.2369V20.8003C33.3916 20.2511 32.9464 19.8021 32.3968 19.8021H20.1638ZM29.8333 16.6494C29.3568 17.8097 27.7325 17.8431 27.2107 16.6991L26.5464 15.2393C25.4577 15.5763 24.6647 16.5951 24.6647 17.8014V18.9701H32.4525V17.8014C32.4525 16.5412 31.5829 15.4807 30.4212 15.1979L29.8333 16.6494ZM26.4108 11.9162C26.4108 13.1057 27.3742 14.0748 28.5568 14.0748C29.7429 14.0748 30.7064 13.1057 30.7064 11.9162C30.7064 10.7269 29.7429 9.75756 28.5568 9.75756C27.3742 9.75756 26.4108 10.7269 26.4108 11.9162ZM29.0647 16.3332L29.5551 15.119H27.3986L27.962 16.3541C28.1707 16.8282 28.8664 16.8323 29.0647 16.3332ZM13.1725 12.2574V7.44139C13.1725 6.98365 13.5412 6.60938 14.0003 6.60938H21.9446C22.4003 6.60938 22.7725 6.98365 22.7725 7.44139V12.2574C22.7725 12.7151 22.4003 13.0894 21.9446 13.0894H21.1585C20.4594 13.0894 19.889 13.6633 19.889 14.3663C19.889 15.352 19.9064 15.3311 19.8646 15.352C19.8194 15.3729 19.969 15.4932 17.882 13.4511C17.642 13.2184 17.329 13.0894 16.9986 13.0894H14.0003C13.5412 13.0894 13.1725 12.7151 13.1725 12.2574ZM14.8594 8.65145C14.8594 8.8845 15.0438 9.06747 15.2734 9.06747H20.7725C20.9985 9.06747 21.1864 8.8845 21.1864 8.65145C21.1864 8.41876 20.9985 8.23546 20.7725 8.23546H15.2734C15.0438 8.23546 14.8594 8.42293 14.8594 8.65145ZM14.8594 11.0887C14.8594 11.3175 15.0438 11.5047 15.2734 11.5047H20.7725C20.9985 11.5047 21.1864 11.3175 21.1864 11.0887C21.1864 10.8602 20.9985 10.673 20.7725 10.673H15.2734C15.0438 10.673 14.8594 10.8602 14.8594 11.0887ZM21.7429 27.4967C21.7429 26.0202 20.5464 24.8184 19.0785 24.8184H13.9446C12.4733 24.8184 11.2803 26.0202 11.2803 27.4967V30.1085L21.7429 30.121V27.4967ZM9.80549 30.9405L23.489 30.9572C23.7186 30.9572 23.9029 30.7701 23.9029 30.5412C23.9029 30.3127 23.722 30.1252 23.489 30.1252H21.7429H11.2768L11.2803 30.1085L9.80549 30.1088C9.57941 30.1088 9.3916 30.296 9.3916 30.5245C9.3916 30.7534 9.57941 30.9405 9.80549 30.9405Z" fill="#555555"/>
</svg>
