<svg width="40" height="40" viewBox="0 0 40 40" fill="none" xmlns="http://www.w3.org/2000/svg">
<path d="M15.6048 10.6626H14.8104V8.27199C14.8104 7.35512 15.5513 6.60938 16.4629 6.60938H22.6574C23.568 6.60938 24.3099 7.35512 24.3099 8.27199V10.6626H23.5151L23.513 8.27199C23.513 7.79582 23.1287 7.40833 22.6563 7.40833H16.4619C15.9895 7.40833 15.6048 7.79582 15.6048 8.27199V10.6626ZM28.336 15.2584V13.2428C28.336 12.7179 28.0748 12.2449 27.6615 11.9189L26.6431 14.9722C27.2264 14.9857 27.7951 15.0835 28.336 15.2595V15.2584ZM19.6539 25.9923C19.6407 25.9788 19.6208 25.9589 19.6 25.9391C19.5784 25.9589 19.5513 25.985 19.5193 26.0174L17.1238 28.4268C16.9321 28.6195 16.8918 28.8685 16.8918 29.0435C16.8918 29.4153 17.072 29.8195 17.3746 30.1238C17.9008 30.6518 18.6737 30.7687 19.0622 30.3781L21.4588 27.9683C21.4908 27.9363 21.5168 27.9092 21.5367 27.8873L19.6852 26.0236L19.6539 25.9923ZM30.145 24.6132C28.1363 26.6341 24.8664 26.6341 22.8567 24.6132C21.8838 23.6351 21.3471 22.3339 21.3471 20.9496C21.3471 19.5652 21.8827 18.264 22.8567 17.2859C23.8295 16.3068 25.1245 15.768 26.5005 15.768C27.8772 15.768 29.1711 16.3068 30.145 17.2859C32.1541 19.3057 32.1541 22.592 30.145 24.6132ZM28.4243 22.8838C28.9381 22.3673 29.2208 21.6807 29.2208 20.9496C29.2208 20.2191 28.9381 19.5329 28.4243 19.0149C27.8939 18.4817 27.1975 18.215 26.5001 18.215C25.8041 18.215 25.1068 18.4817 24.5763 19.0149C23.5175 20.0817 23.5175 21.8174 24.5763 22.8838C25.6372 23.9485 27.3635 23.9485 28.4233 22.8838H28.4243ZM27.1697 20.0076L26.1937 21.016L25.8518 20.6014C25.712 20.4316 25.4612 20.4076 25.2921 20.5496C25.1234 20.6901 25.0995 20.9422 25.2403 21.112L25.864 21.8682C25.9367 21.9558 26.0414 22.008 26.1544 22.0132H26.1697C26.2765 22.0132 26.3801 21.9694 26.4546 21.8922L27.7384 20.5652C27.8918 20.4066 27.8876 20.1537 27.7311 20.0003C27.5735 19.8463 27.3217 19.8504 27.1687 20.0076H27.1697ZM21.7346 24.5297L20.5297 25.7423L21.7346 26.9537L22.9405 25.7412C22.7158 25.5715 22.4991 25.385 22.2939 25.1788C22.0908 24.9746 21.9033 24.7569 21.7335 24.5297H21.7346ZM17.4514 15.9349C17.2153 15.9349 17.0226 16.1287 17.0226 16.3659V18.6901C17.0226 18.9276 17.2153 19.1214 17.4514 19.1214H20.8344C21.0911 18.3151 21.5172 17.5694 22.0963 16.9297V16.3649C22.0963 16.1276 21.9036 15.9339 21.6664 15.9339H17.4514V15.9349ZM20.5523 20.9496C20.5523 20.6007 20.5812 20.257 20.6393 19.9203H17.4514C16.777 19.9203 16.2278 19.3683 16.2278 18.6901V18.0372H14.5826C13.8841 18.0372 13.3568 17.6111 13.0987 16.8369L11.4577 11.9172C11.0434 12.2431 10.7822 12.7161 10.7822 13.2421V21.8153C10.7822 22.7965 11.6928 23.5955 12.8118 23.5955H21.1624C20.7635 22.7829 20.552 21.8831 20.552 20.9506L20.5523 20.9496ZM14.5826 17.2369H16.2278V16.3652C16.2278 15.6869 16.777 15.1349 17.4514 15.1349H21.6661C22.2866 15.1349 22.8007 15.6014 22.8803 16.2024C23.728 15.5464 24.7276 15.137 25.7909 15.0097L26.944 11.5513C26.7429 11.4929 26.5283 11.4605 26.3057 11.4605L12.8121 11.4626C12.5895 11.4626 12.376 11.4949 12.1749 11.5534L13.8535 16.5847C14.072 17.2389 14.4563 17.2389 14.5829 17.2389L14.5826 17.2369Z" fill="#555555"/>
</svg>
