<svg width="40" height="40" viewBox="0 0 40 40" fill="none" xmlns="http://www.w3.org/2000/svg">
<path d="M23.0951 11.3298H27.6492V11.3187C27.6492 11.1357 27.5731 10.9607 27.4433 10.8348L23.2586 6.79102C23.1331 6.6731 22.9692 6.6084 22.7981 6.6084H22.7637V10.9987C22.7637 11.1816 22.9122 11.3298 23.0951 11.3298Z" fill="#555555"/>
<path d="M32.8752 21.3809H20.2982C20.0126 21.3809 19.7803 21.6132 19.7803 21.8988V23.296C19.7803 24.7962 20.9949 26.0146 22.4954 26.0146H24.6693V25.2264C24.6693 24.6936 25.1072 24.2556 25.6443 24.2556H27.5291C28.0658 24.2556 28.5038 24.6936 28.5038 25.2264V26.0146H30.678C32.1782 26.0146 33.3928 24.7962 33.3928 23.296V21.8988C33.3928 21.6132 33.1608 21.3809 32.8752 21.3809Z" fill="#555555"/>
<path d="M27.7391 26.04V25.225C27.7391 25.1071 27.6438 25.0156 27.5297 25.0156H25.641C25.5231 25.0156 25.4316 25.1109 25.4316 25.225V26.04C25.4316 26.6758 25.9496 27.1937 26.5854 27.1937C27.2212 27.1937 27.7391 26.6758 27.7391 26.04Z" fill="#555555"/>
<path d="M20.2986 20.622H23.0934V19.5636C23.0934 18.7222 23.7751 18.0405 24.6165 18.0405H27.6513V12.1003H23.0972C22.4955 12.1003 22.0044 11.6092 22.0044 11.0078V6.61719H9.92644C9.43914 6.61719 9.04297 7.01335 9.04297 7.50066V29.7605C9.04297 30.252 9.43914 30.6478 9.92644 30.6478H19.1296C19.0572 30.4916 19.0193 30.3167 19.0193 30.1299V21.9014C19.0193 21.1932 19.5943 20.622 20.2986 20.622ZM25.4085 14.9751C25.6179 14.9751 25.7894 15.1466 25.7894 15.356C25.7894 15.5653 25.6179 15.7368 25.4085 15.7368H17.203C16.9898 15.7368 16.8221 15.5653 16.8221 15.356C16.8221 15.1466 16.9898 14.9751 17.203 14.9751H25.4085ZM11.5713 9.43109C11.5713 9.08848 11.8492 8.81441 12.188 8.81441H18.924C19.2628 8.81441 19.5407 9.08848 19.5407 9.43109V11.5674C19.5407 11.9062 19.2628 12.1841 18.924 12.1841H12.188C11.8492 12.1841 11.5713 11.9062 11.5713 11.5674V9.43109ZM15.8322 24.4488C15.8322 24.8714 15.4896 25.2179 15.0628 25.2179H11.9748C11.5522 25.2179 11.2096 24.8714 11.2096 24.4488V21.357C11.2096 20.9344 11.5522 20.588 11.9748 20.588H15.0628C15.4896 20.588 15.8322 20.9344 15.8322 21.357V24.4488ZM15.8322 17.8996C15.8322 18.3261 15.4896 18.6687 15.0628 18.6687H11.9748C11.5522 18.6687 11.2096 18.3261 11.2096 17.8996V14.8078C11.2096 14.3852 11.5522 14.0422 11.9748 14.0422H15.0628C15.4896 14.0422 15.8322 14.3852 15.8322 14.8078V17.8996ZM17.203 17.7358C16.9898 17.7358 16.8221 17.5647 16.8221 17.3549C16.8221 17.1417 16.9898 16.9744 17.203 16.9744H22.0729C22.2823 16.9744 22.4538 17.1417 22.4538 17.3549C22.4538 17.5647 22.2823 17.7358 22.0729 17.7358H17.203Z" fill="#555555"/>
<path d="M18.7786 9.56836H12.332V11.415H18.7786V9.56836Z" fill="#555555"/>
<path d="M11.9725 21.3418L11.9648 24.4413L15.0605 24.4489L15.0682 21.3494C15.0682 21.3456 15.0643 21.3418 15.0605 21.3418H11.9725ZM14.4247 22.7964L13.473 23.5808C13.4041 23.6381 13.3207 23.6684 13.2292 23.6684C13.2177 23.6684 13.2062 23.6684 13.1909 23.6684C13.0922 23.6569 12.9968 23.6075 12.9322 23.5314L12.5475 23.0632C12.4142 22.8994 12.4372 22.6594 12.601 22.5261C12.7645 22.3929 13.0045 22.4155 13.1377 22.5794L13.2786 22.7508L13.9374 22.21C14.0974 22.0767 14.3408 22.0997 14.4744 22.2635C14.6115 22.4232 14.5885 22.6632 14.4247 22.7964Z" fill="#555555"/>
<path d="M11.9725 14.793L11.9648 17.8925L15.0605 17.9001L15.0682 14.8006C15.0682 14.7968 15.0643 14.793 15.0605 14.793H11.9725ZM14.4247 16.2476L13.473 17.0319C13.4041 17.089 13.3207 17.1196 13.2292 17.1196C13.2177 17.1196 13.2062 17.1196 13.1909 17.1196C13.0922 17.1081 12.9968 17.0587 12.9322 16.9825L12.5475 16.514C12.4142 16.3505 12.4372 16.1105 12.601 15.9773C12.7645 15.8441 13.0045 15.8667 13.1377 16.0305L13.2786 16.202L13.9374 15.6611C14.0974 15.5279 14.3408 15.5509 14.4744 15.7144C14.6115 15.8744 14.5885 16.1144 14.4247 16.2476Z" fill="#555555"/>
<path d="M30.678 26.7756H28.3552C28.0658 27.4685 27.3844 27.9562 26.5886 27.9562C25.7928 27.9562 25.1072 27.4685 24.8178 26.7756H22.4954C21.3987 26.7756 20.4161 26.2616 19.7803 25.4619V30.1263C19.7803 30.4118 20.0126 30.6442 20.2982 30.6442H32.8752C33.1608 30.6442 33.3928 30.4118 33.3928 30.1263V25.4619C32.757 26.2616 31.7747 26.7756 30.678 26.7756Z" fill="#555555"/>
<path d="M23.8535 19.5602V20.619H25.3766V20.139C25.3766 20.0667 25.4337 20.0096 25.506 20.0096H27.665C27.7373 20.0096 27.7944 20.0667 27.7944 20.139V20.619H29.3175V19.5602C29.3175 19.1414 28.9749 18.7988 28.5561 18.7988H24.6153C24.1961 18.7988 23.8535 19.1376 23.8535 19.5602Z" fill="#555555"/>
</svg>
