<svg width="115" height="115" viewBox="0 0 115 115" fill="none" xmlns="http://www.w3.org/2000/svg">
<path d="M57.5 115C89.2564 115 115 89.2564 115 57.5C115 25.7436 89.2564 0 57.5 0C25.7436 0 0 25.7436 0 57.5C0 89.2564 25.7436 115 57.5 115Z" fill="#FFF0F0"/>
<path d="M66.3981 32.574H79.4911V32.542C79.4911 32.016 79.2721 31.513 78.8991 31.151L66.8681 19.525C66.5071 19.186 66.0361 19 65.5441 19H65.4451V31.622C65.4451 32.148 65.8721 32.574 66.3981 32.574Z" fill="#DA2128"/>
<path d="M94.5149 61.469H58.3559C57.5349 61.469 56.8669 62.137 56.8669 62.958V66.975C56.8669 71.288 60.3589 74.791 64.6729 74.791H70.9229V72.525C70.9229 70.993 72.1819 69.734 73.7259 69.734H79.1449C80.6879 69.734 81.9469 70.993 81.9469 72.525V74.791H88.1979C92.5109 74.791 96.0029 71.288 96.0029 66.975V62.958C96.0029 62.137 95.3359 61.469 94.5149 61.469Z" fill="#DA2128"/>
<path d="M79.7509 74.867V72.524C79.7509 72.185 79.4769 71.922 79.1489 71.922H73.7189C73.3799 71.922 73.1169 72.196 73.1169 72.524V74.867C73.1169 76.695 74.6059 78.184 76.4339 78.184C78.2619 78.184 79.7509 76.695 79.7509 74.867Z" fill="#DA2128"/>
<path d="M58.36 59.287H66.395V56.244C66.395 53.825 68.355 51.865 70.774 51.865H79.499V34.787H66.406C64.676 34.787 63.264 33.375 63.264 31.646V19.023H28.54C27.139 19.023 26 20.162 26 21.563V85.56C26 86.973 27.139 88.111 28.54 88.111H54.999C54.791 87.662 54.682 87.159 54.682 86.622V62.965C54.682 60.929 56.335 59.287 58.36 59.287ZM73.051 43.052C73.653 43.052 74.146 43.545 74.146 44.147C74.146 44.749 73.653 45.242 73.051 45.242H49.46C48.847 45.242 48.365 44.749 48.365 44.147C48.365 43.545 48.847 43.052 49.46 43.052H73.051ZM33.269 27.113C33.269 26.128 34.068 25.34 35.042 25.34H54.408C55.382 25.34 56.181 26.128 56.181 27.113V33.255C56.181 34.229 55.382 35.028 54.408 35.028H35.042C34.068 35.028 33.269 34.229 33.269 33.255V27.113ZM45.519 70.289C45.519 71.504 44.534 72.5 43.307 72.5H34.429C33.214 72.5 32.229 71.504 32.229 70.289V61.4C32.229 60.185 33.214 59.189 34.429 59.189H43.307C44.534 59.189 45.519 60.185 45.519 61.4V70.289ZM45.519 51.46C45.519 52.686 44.534 53.671 43.307 53.671H34.429C33.214 53.671 32.229 52.686 32.229 51.46V42.571C32.229 41.356 33.214 40.37 34.429 40.37H43.307C44.534 40.37 45.519 41.356 45.519 42.571V51.46ZM49.46 50.989C48.847 50.989 48.365 50.497 48.365 49.894C48.365 49.281 48.847 48.8 49.46 48.8H63.461C64.063 48.8 64.556 49.281 64.556 49.894C64.556 50.497 64.063 50.989 63.461 50.989H49.46Z" fill="#DA2128"/>
<path d="M53.9871 27.508H35.4531V32.817H53.9871V27.508Z" fill="#DA2128"/>
<path d="M34.42 61.359L34.3979 70.27L43.298 70.292L43.32 61.381C43.32 61.37 43.309 61.359 43.298 61.359H34.42ZM41.47 65.541L38.7339 67.796C38.5359 67.961 38.296 68.048 38.033 68.048C38 68.048 37.967 68.048 37.923 68.048C37.639 68.015 37.365 67.873 37.179 67.654L36.073 66.308C35.69 65.837 35.756 65.147 36.227 64.764C36.697 64.381 37.387 64.446 37.77 64.917L38.175 65.41L40.069 63.855C40.529 63.472 41.229 63.538 41.613 64.009C42.007 64.468 41.941 65.158 41.47 65.541Z" fill="#DA2128"/>
<path d="M34.42 42.531L34.3979 51.442L43.298 51.464L43.32 42.553C43.32 42.542 43.309 42.531 43.298 42.531H34.42ZM41.47 46.713L38.7339 48.968C38.5359 49.132 38.296 49.22 38.033 49.22C38 49.22 37.967 49.22 37.923 49.22C37.639 49.187 37.365 49.045 37.179 48.826L36.073 47.479C35.69 47.009 35.756 46.319 36.227 45.936C36.697 45.553 37.387 45.618 37.77 46.089L38.175 46.582L40.069 45.027C40.529 44.644 41.229 44.71 41.613 45.18C42.007 45.64 41.941 46.33 41.47 46.713Z" fill="#DA2128"/>
<path d="M88.1979 76.98H81.5199C80.6879 78.972 78.7289 80.374 76.4409 80.374C74.1529 80.374 72.1819 78.972 71.3499 76.98H64.6729C61.5199 76.98 58.6949 75.502 56.8669 73.203V86.613C56.8669 87.434 57.5349 88.102 58.3559 88.102H94.5149C95.3359 88.102 96.0029 87.434 96.0029 86.613V73.203C94.1749 75.502 91.3509 76.98 88.1979 76.98Z" fill="#DA2128"/>
<path d="M68.5781 56.236V59.28H72.9571V57.9C72.9571 57.692 73.1211 57.528 73.3291 57.528H79.5361C79.7441 57.528 79.9081 57.692 79.9081 57.9V59.28H84.2871V56.236C84.2871 55.032 83.3021 54.047 82.0981 54.047H70.7681C69.5631 54.047 68.5781 55.021 68.5781 56.236Z" fill="#DA2128"/>
</svg>
