<svg width="115" height="115" viewBox="0 0 115 115" fill="none" xmlns="http://www.w3.org/2000/svg">
<path d="M57.5 115C89.2564 115 115 89.2564 115 57.5C115 25.7436 89.2564 0 57.5 0C25.7436 0 0 25.7436 0 57.5C0 89.2564 25.7436 115 57.5 115Z" fill="#FFF0F0"/>
<path d="M44.865 30.653H42.581V23.78C42.581 21.144 44.711 19 47.332 19H65.141C67.759 19 69.892 21.144 69.892 23.78V30.653H67.607L67.601 23.78C67.601 22.411 66.496 21.297 65.138 21.297H47.329C45.971 21.297 44.865 22.411 44.865 23.78V30.653ZM81.467 43.866V38.071C81.467 36.562 80.716 35.202 79.528 34.265L76.6 43.043C78.277 43.082 79.912 43.363 81.467 43.869V43.866ZM56.506 74.726C56.468 74.687 56.411 74.63 56.351 74.573C56.289 74.63 56.211 74.705 56.119 74.798L49.232 81.725C48.681 82.279 48.565 82.995 48.565 83.498C48.565 84.567 49.083 85.729 49.953 86.604C51.466 88.122 53.688 88.458 54.805 87.335L61.695 80.407C61.787 80.315 61.862 80.237 61.919 80.174L56.596 74.816L56.506 74.726ZM86.668 70.761C80.893 76.571 71.492 76.571 65.714 70.761C62.917 67.949 61.374 64.208 61.374 60.228C61.374 56.248 62.914 52.507 65.714 49.695C68.511 46.88 72.234 45.331 76.19 45.331C80.148 45.331 83.868 46.88 86.668 49.695C92.444 55.502 92.444 64.95 86.668 70.761ZM81.721 65.789C83.198 64.304 84.011 62.33 84.011 60.228C84.011 58.128 83.198 56.155 81.721 54.666C80.196 53.133 78.194 52.366 76.189 52.366C74.188 52.366 72.183 53.133 70.658 54.666C67.614 57.733 67.614 62.723 70.658 65.789C73.708 68.85 78.671 68.85 81.718 65.789H81.721ZM78.114 57.52L75.308 60.419L74.325 59.227C73.923 58.739 73.202 58.67 72.716 59.078C72.231 59.482 72.162 60.207 72.567 60.695L74.36 62.869C74.569 63.121 74.87 63.271 75.195 63.286H75.239C75.546 63.286 75.844 63.16 76.058 62.938L79.749 59.123C80.19 58.667 80.178 57.94 79.728 57.499C79.275 57.056 78.551 57.068 78.111 57.52H78.114ZM62.488 70.521L59.024 74.007L62.488 77.49L65.955 74.004C65.309 73.516 64.686 72.98 64.096 72.387C63.512 71.8 62.973 71.174 62.485 70.521H62.488ZM50.174 45.811C49.495 45.811 48.941 46.368 48.941 47.05V53.732C48.941 54.415 49.495 54.972 50.174 54.972H59.9C60.638 52.654 61.863 50.51 63.528 48.671V47.047C63.528 46.365 62.974 45.808 62.292 45.808H50.174V45.811ZM59.089 60.228C59.089 59.225 59.172 58.237 59.339 57.269H50.174C48.235 57.269 46.656 55.682 46.656 53.732V51.855H41.926C39.918 51.855 38.402 50.63 37.66 48.404L32.942 34.26C31.751 35.197 31 36.557 31 38.069V62.717C31 65.538 33.618 67.835 36.835 67.835H60.843C59.696 65.499 59.088 62.912 59.088 60.231L59.089 60.228ZM41.926 49.554H46.656V47.048C46.656 45.098 48.235 43.511 50.174 43.511H62.291C64.075 43.511 65.553 44.852 65.782 46.58C68.219 44.694 71.093 43.517 74.15 43.151L77.465 33.208C76.887 33.04 76.27 32.947 75.63 32.947L36.836 32.953C36.196 32.953 35.582 33.046 35.004 33.214L39.83 47.679C40.458 49.56 41.563 49.56 41.927 49.56L41.926 49.554Z" fill="#DA2128"/>
</svg>
