<svg width="42" height="40" viewBox="0 0 42 40" fill="none" xmlns="http://www.w3.org/2000/svg">
<rect width="41.1837" height="40" rx="20" fill="#2A2A2A" fill-opacity="0.4"/>
<path d="M20.5918 10C18.5215 10 16.8418 11.6797 16.8418 13.75V20C16.8418 22.0703 18.5215 23.75 20.5918 23.75C22.6621 23.75 24.3418 22.0703 24.3418 20V13.75C24.3418 11.6797 22.6621 10 20.5918 10ZM15.5918 18.4375C15.5918 17.918 15.1738 17.5 14.6543 17.5C14.1348 17.5 13.7168 17.918 13.7168 18.4375V20C13.7168 23.4805 16.3027 26.3555 19.6543 26.8125V28.125H17.7793C17.2598 28.125 16.8418 28.543 16.8418 29.0625C16.8418 29.582 17.2598 30 17.7793 30H20.5918H23.4043C23.9238 30 24.3418 29.582 24.3418 29.0625C24.3418 28.543 23.9238 28.125 23.4043 28.125H21.5293V26.8125C24.8809 26.3555 27.4668 23.4805 27.4668 20V18.4375C27.4668 17.918 27.0488 17.5 26.5293 17.5C26.0098 17.5 25.5918 17.918 25.5918 18.4375V20C25.5918 22.7617 23.3535 25 20.5918 25C17.8301 25 15.5918 22.7617 15.5918 20V18.4375Z" fill="white"/>
</svg>
