<svg width="43" height="40" viewBox="0 0 43 40" fill="none" xmlns="http://www.w3.org/2000/svg">
<rect x="0.90625" width="41.1837" height="40" rx="20" fill="#2A2A2A" fill-opacity="0.4"/>
<path d="M30.5406 14.8155L26.2708 17.5L26.3175 16.3468C26.3175 15.7244 26.052 15.1275 25.5795 14.6874C25.1069 14.2473 24.4659 14 23.7975 14H13.518C12.8497 14 12.2087 14.2473 11.7361 14.6874C11.2635 15.1275 10.998 15.7244 10.998 16.3468V23.6532C10.998 24.2756 11.2635 24.8725 11.7361 25.3126C12.2087 25.7527 12.8497 26 13.518 26H23.7975C24.4659 26 25.1069 25.7527 25.5795 25.3126C26.052 24.8725 26.3175 24.2756 26.3175 23.6532L26.2708 22.5L30.5406 25.1845C31.3407 25.6128 31.998 25.2608 31.998 24.4022V15.6017C31.998 14.7392 31.3428 14.3872 30.5406 14.8155Z" fill="white"/>
</svg>
