<svg width="43" height="40" viewBox="0 0 43 40" fill="none" xmlns="http://www.w3.org/2000/svg">
<rect x="0.954102" width="41.1837" height="40" rx="20" fill="#2A2A2A" fill-opacity="0.4"/>
<path d="M24.5576 11.3586C25.0068 11.5618 25.2959 12.0071 25.2959 12.4993V27.4993C25.2959 27.9914 25.0068 28.4368 24.5576 28.6399C24.1084 28.843 23.5811 28.761 23.2139 28.4328L17.9443 23.7493H15.2959C13.917 23.7493 12.7959 22.6282 12.7959 21.2493V18.7493C12.7959 17.3703 13.917 16.2493 15.2959 16.2493H17.9443L23.2139 11.5657C23.5811 11.2375 24.1084 11.1594 24.5576 11.3586ZM28.9131 17.0891C29.7529 17.7766 30.2959 18.8235 30.2959 19.9993C30.2959 21.175 29.7529 22.2219 28.9131 22.9094C28.5107 23.2375 27.9209 23.175 27.5928 22.7727C27.2646 22.3703 27.3271 21.7805 27.7295 21.4524C28.1514 21.1086 28.4209 20.5852 28.4209 19.9993C28.4209 19.4133 28.1514 18.8899 27.7295 18.5422C27.3271 18.2141 27.2686 17.6243 27.5928 17.2219C27.917 16.8196 28.5107 16.761 28.9131 17.0852V17.0891Z" fill="white"/>
</svg>
