<svg width="40" height="40" viewBox="0 0 40 40" fill="none" xmlns="http://www.w3.org/2000/svg">
<path d="M23.0951 11.3298H27.6492V11.3187C27.6492 11.1357 27.5731 10.9607 27.4433 10.8348L23.2586 6.79102C23.1331 6.6731 22.9692 6.6084 22.7981 6.6084H22.7637V10.9987C22.7637 11.1816 22.9122 11.3298 23.0951 11.3298Z" fill="white"/>
<path d="M32.8743 21.3809H20.2972C20.0116 21.3809 19.7793 21.6132 19.7793 21.8988V23.296C19.7793 24.7962 20.9939 26.0146 22.4944 26.0146H24.6683V25.2264C24.6683 24.6936 25.1063 24.2556 25.6433 24.2556H27.5282C28.0649 24.2556 28.5028 24.6936 28.5028 25.2264V26.0146H30.677C32.1772 26.0146 33.3918 24.7962 33.3918 23.296V21.8988C33.3918 21.6132 33.1598 21.3809 32.8743 21.3809Z" fill="white"/>
<path d="M27.7391 26.041V25.226C27.7391 25.1081 27.6438 25.0166 27.5297 25.0166H25.641C25.5231 25.0166 25.4316 25.1119 25.4316 25.226V26.041C25.4316 26.6768 25.9496 27.1947 26.5854 27.1947C27.2212 27.1947 27.7391 26.6768 27.7391 26.041Z" fill="white"/>
<path d="M20.2986 20.6211H23.0934V19.5626C23.0934 18.7213 23.7751 18.0395 24.6165 18.0395H27.6513V12.0993H23.0972C22.4955 12.0993 22.0044 11.6082 22.0044 11.0068V6.61621H9.92644C9.43914 6.61621 9.04297 7.01238 9.04297 7.49968V29.7595C9.04297 30.251 9.43914 30.6468 9.92644 30.6468H19.1296C19.0572 30.4907 19.0193 30.3157 19.0193 30.1289V21.9004C19.0193 21.1922 19.5943 20.6211 20.2986 20.6211ZM25.4085 14.9741C25.6179 14.9741 25.7894 15.1456 25.7894 15.355C25.7894 15.5644 25.6179 15.7359 25.4085 15.7359H17.203C16.9898 15.7359 16.8221 15.5644 16.8221 15.355C16.8221 15.1456 16.9898 14.9741 17.203 14.9741H25.4085ZM11.5713 9.43011C11.5713 9.0875 11.8492 8.81343 12.188 8.81343H18.924C19.2628 8.81343 19.5407 9.0875 19.5407 9.43011V11.5665C19.5407 11.9053 19.2628 12.1832 18.924 12.1832H12.188C11.8492 12.1832 11.5713 11.9053 11.5713 11.5665V9.43011ZM15.8322 24.4479C15.8322 24.8705 15.4896 25.2169 15.0628 25.2169H11.9748C11.5522 25.2169 11.2096 24.8705 11.2096 24.4479V21.356C11.2096 20.9334 11.5522 20.587 11.9748 20.587H15.0628C15.4896 20.587 15.8322 20.9334 15.8322 21.356V24.4479ZM15.8322 17.8987C15.8322 18.3251 15.4896 18.6677 15.0628 18.6677H11.9748C11.5522 18.6677 11.2096 18.3251 11.2096 17.8987V14.8068C11.2096 14.3842 11.5522 14.0412 11.9748 14.0412H15.0628C15.4896 14.0412 15.8322 14.3842 15.8322 14.8068V17.8987ZM17.203 17.7348C16.9898 17.7348 16.8221 17.5637 16.8221 17.3539C16.8221 17.1407 16.9898 16.9734 17.203 16.9734H22.0729C22.2823 16.9734 22.4538 17.1407 22.4538 17.3539C22.4538 17.5637 22.2823 17.7348 22.0729 17.7348H17.203Z" fill="white"/>
<path d="M18.7786 9.56836H12.332V11.415H18.7786V9.56836Z" fill="white"/>
<path d="M11.9725 21.3418L11.9648 24.4413L15.0605 24.4489L15.0682 21.3494C15.0682 21.3456 15.0643 21.3418 15.0605 21.3418H11.9725ZM14.4247 22.7964L13.473 23.5808C13.4041 23.6381 13.3207 23.6684 13.2292 23.6684C13.2177 23.6684 13.2062 23.6684 13.1909 23.6684C13.0922 23.6569 12.9968 23.6075 12.9322 23.5314L12.5475 23.0632C12.4142 22.8994 12.4372 22.6594 12.601 22.5261C12.7645 22.3929 13.0045 22.4155 13.1377 22.5794L13.2786 22.7508L13.9374 22.21C14.0974 22.0767 14.3408 22.0997 14.4744 22.2635C14.6115 22.4232 14.5885 22.6632 14.4247 22.7964Z" fill="white"/>
<path d="M11.9725 14.793L11.9648 17.8925L15.0605 17.9001L15.0682 14.8006C15.0682 14.7968 15.0643 14.793 15.0605 14.793H11.9725ZM14.4247 16.2476L13.473 17.0319C13.4041 17.089 13.3207 17.1196 13.2292 17.1196C13.2177 17.1196 13.2062 17.1196 13.1909 17.1196C13.0922 17.1081 12.9968 17.0587 12.9322 16.9825L12.5475 16.514C12.4142 16.3505 12.4372 16.1105 12.601 15.9773C12.7645 15.8441 13.0045 15.8667 13.1377 16.0305L13.2786 16.202L13.9374 15.6611C14.0974 15.5279 14.3408 15.5509 14.4744 15.7144C14.6115 15.8744 14.5885 16.1144 14.4247 16.2476Z" fill="white"/>
<path d="M30.677 26.7756H28.3543C28.0649 27.4685 27.3835 27.9562 26.5876 27.9562C25.7918 27.9562 25.1063 27.4685 24.8169 26.7756H22.4944C21.3977 26.7756 20.4151 26.2616 19.7793 25.4619V30.1263C19.7793 30.4118 20.0116 30.6442 20.2972 30.6442H32.8743C33.1598 30.6442 33.3918 30.4118 33.3918 30.1263V25.4619C32.756 26.2616 31.7737 26.7756 30.677 26.7756Z" fill="white"/>
<path d="M23.8535 19.5602V20.619H25.3766V20.139C25.3766 20.0667 25.4337 20.0096 25.506 20.0096H27.665C27.7373 20.0096 27.7944 20.0667 27.7944 20.139V20.619H29.3175V19.5602C29.3175 19.1414 28.9749 18.7988 28.5561 18.7988H24.6153C24.1961 18.7988 23.8535 19.1376 23.8535 19.5602Z" fill="white"/>
</svg>
