<svg width="40" height="40" viewBox="0 0 40 40" fill="none" xmlns="http://www.w3.org/2000/svg">
<path fill-rule="evenodd" clip-rule="evenodd" d="M17.0995 13.051C16.0415 14.1008 15.5128 15.4754 15.5128 16.8507C15.5128 18.226 16.0415 19.6009 17.0995 20.65C18.158 21.6987 19.5437 22.2242 20.9302 22.2242C22.3169 22.2242 23.703 21.6997 24.7608 20.65C25.8182 19.6002 26.3479 18.226 26.3479 16.8507C26.3479 15.4754 25.8192 14.1001 24.7608 13.051C23.7023 12.0013 22.3169 11.4771 20.9302 11.4771C19.5437 11.4771 18.1573 12.0013 17.0995 13.051ZM12.2738 9.13761H12.7072V27.2934C12.7072 28.266 13.5062 29.0576 14.4867 29.0576H27.0756V29.4747C27.0756 30.0994 26.5618 30.6082 25.9326 30.6082H12.2738C11.6439 30.6082 11.1309 30.0983 11.1309 29.4747V10.2722C11.1298 9.64753 11.6439 9.13761 12.2738 9.13761ZM27.5649 20.9428L28.2321 21.6047L25.6919 24.1244L25.0248 23.4625L27.5649 20.9428ZM24.3615 21.7967C24.4599 21.7296 24.557 21.6594 24.6523 21.5853C24.8509 21.4312 25.0376 21.2684 25.2105 21.0969C25.3844 20.9244 25.5486 20.7394 25.7027 20.5425C25.7775 20.4479 25.8484 20.3522 25.9159 20.2538L26.6766 20.9314L25.0436 22.5512L24.3615 21.7967ZM26.5263 24.1888L28.8592 26.7658C29.2404 27.1867 29.7406 27.2169 30.1848 27.0308C30.4001 26.9401 30.6063 26.7978 30.783 26.6225C30.9601 26.4472 31.1034 26.2434 31.1949 26.0298C31.3827 25.5901 31.3521 25.0931 30.9277 24.715L28.3295 22.4013L26.5263 24.1888ZM16.6495 12.6054C15.4672 13.778 14.877 15.314 14.877 16.8514C14.877 18.3884 15.4672 19.9244 16.6495 21.0973C17.8317 22.2698 19.3802 22.8555 20.9302 22.8555C21.9225 22.8555 22.9159 22.6148 23.8122 22.1331L24.5956 22.9978L24.3507 23.2406C24.2269 23.3634 24.2269 23.563 24.3507 23.6868L25.4679 24.795C25.5917 24.9178 25.7931 24.9178 25.918 24.795L26.0783 24.6364L28.3886 27.1888C28.637 27.4639 28.9163 27.6322 29.207 27.7143C29.038 28.1314 28.6255 28.4277 28.1458 28.4277L14.4857 28.4267C13.8557 28.4267 13.343 27.9171 13.343 27.2931V8.08961C13.343 7.46491 13.8568 6.95605 14.4857 6.95605H24.445V10.0294C24.445 11.002 25.2439 11.7943 26.2248 11.7943H29.2877V22.41L28.7785 21.9568L28.9072 21.8287C29.031 21.706 29.031 21.5063 28.9072 21.3825L27.79 20.2743C27.6662 20.1515 27.4648 20.1515 27.3399 20.2743L27.1267 20.4858L26.255 19.7091C26.7406 18.82 26.9834 17.8357 26.9834 16.8503C26.9834 15.3129 26.3928 13.7769 25.2105 12.6044C24.0286 11.4319 22.4797 10.8461 20.9302 10.8461C19.3813 10.8461 17.8317 11.4329 16.6495 12.6054ZM25.0818 6.95605V10.0291C25.0818 10.6538 25.5959 11.1627 26.2248 11.1627H29.2877L25.0818 6.95605ZM18.1757 14.1181C18.9364 13.3637 19.9336 12.9863 20.9302 12.9863C21.9274 12.9863 22.9239 13.3637 23.6846 14.1181C24.4449 14.8726 24.8255 15.8618 24.8255 16.85C24.8255 17.8392 24.4449 18.8277 23.6846 19.5821C22.9239 20.3366 21.9263 20.7136 20.9302 20.7136C19.9326 20.7136 18.9364 20.3366 18.1757 19.5821C17.415 18.8277 17.0349 17.8385 17.0349 16.85C17.0349 15.8618 17.415 14.8722 18.1757 14.1181ZM20.1823 17.4994C20.3131 17.3832 20.5124 17.395 20.6293 17.5237C20.7465 17.6535 20.7347 17.852 20.6049 17.9672C20.4672 18.0889 20.3089 18.1856 20.1371 18.2507C19.9691 18.314 19.7883 18.3491 19.5997 18.3491C19.182 18.3491 18.8046 18.1815 18.5315 17.9105C18.2582 17.6395 18.0891 17.2642 18.0891 16.851C18.0891 16.4368 18.2582 16.0625 18.5315 15.7915C18.8046 15.5206 19.183 15.3529 19.5997 15.3529C19.7883 15.3529 19.9702 15.3881 20.1371 15.4514C20.3089 15.5168 20.4672 15.6131 20.6049 15.7352C20.7357 15.85 20.7465 16.0489 20.6293 16.1787C20.5124 16.3081 20.3131 16.3188 20.1823 16.203C20.1048 16.1348 20.0133 16.0792 19.911 16.0402C19.8147 16.003 19.7097 15.9835 19.5997 15.9835C19.358 15.9835 19.1389 16.0813 18.9806 16.2381C18.8223 16.395 18.7242 16.6124 18.7242 16.8521C18.7242 17.0917 18.8223 17.3091 18.9806 17.466C19.1389 17.6232 19.358 17.7206 19.5997 17.7206C19.7097 17.7206 19.8147 17.7 19.911 17.6639C20.0133 17.6239 20.1048 17.5686 20.1823 17.4994ZM21.0442 15.7926C20.9733 15.6336 21.046 15.4475 21.2074 15.3773C21.3674 15.3074 21.5552 15.3794 21.6258 15.5383L22.3952 17.2587L23.1646 15.5383C23.2356 15.3794 23.423 15.3063 23.5834 15.3773C23.7434 15.4475 23.8171 15.6329 23.7465 15.7926L22.6863 18.163L22.6843 18.1679L22.6832 18.171L22.6822 18.1727C22.6815 18.1759 22.6794 18.1787 22.6773 18.1815C22.6756 18.1856 22.6735 18.1884 22.6714 18.1912L22.6686 18.1961L22.6676 18.1981L22.6637 18.2041V18.2051C22.6596 18.211 22.6557 18.2176 22.6509 18.2225L22.6498 18.2235L22.646 18.2284L22.645 18.2295C22.6418 18.2333 22.639 18.2361 22.6363 18.2402L22.631 18.2451L22.6303 18.2468L22.5997 18.2771C22.5959 18.2799 22.5928 18.283 22.589 18.2858L22.5879 18.2868L22.583 18.2907L22.582 18.2917C22.5761 18.2966 22.5702 18.3004 22.5642 18.3046H22.5632L22.5576 18.3084L22.5556 18.3094L22.5507 18.3122C22.5475 18.3143 22.5437 18.3161 22.541 18.3181C22.5378 18.3192 22.535 18.3209 22.5319 18.323L22.5298 18.324L22.527 18.3248L22.5222 18.3268L22.5201 18.3279L22.5152 18.3296L22.5124 18.3307L22.5083 18.3328L22.5034 18.3345L22.5023 18.3355C22.471 18.3474 22.4387 18.3533 22.406 18.354H22.3834C22.351 18.3533 22.3187 18.3474 22.2874 18.3355L22.2863 18.3345L22.2815 18.3328L22.2773 18.3307L22.2735 18.3268L22.2686 18.3248L22.2665 18.324L22.2616 18.322L22.2589 18.3209L22.2568 18.3199C22.254 18.3181 22.2509 18.3171 22.2481 18.315C22.2449 18.3133 22.2411 18.3112 22.238 18.3094L22.2331 18.3063L22.2314 18.3053L22.2255 18.3014H22.2244C22.2185 18.2976 22.2116 18.2938 22.2067 18.2889L22.2057 18.2879L22.2008 18.2841L22.1997 18.283C22.1959 18.2799 22.1928 18.2771 22.1889 18.2743L22.1879 18.2733L22.183 18.2694L22.1507 18.2371C22.1476 18.2333 22.1448 18.2305 22.1416 18.2263L22.1409 18.2256L22.1368 18.2207L22.1361 18.2197C22.1319 18.2138 22.1281 18.2079 22.1243 18.202V18.2009L22.1201 18.1954L22.1194 18.1933L22.1163 18.1884C22.1142 18.1846 22.1124 18.1815 22.1103 18.1787C22.1082 18.1759 22.1076 18.1727 22.1055 18.17L22.1044 18.1679L22.1034 18.1651L22.1016 18.1602L21.0442 15.7926ZM16.399 16.8503C16.399 15.7001 16.8411 14.5487 17.7267 13.6719C18.6119 12.7936 19.7716 12.355 20.9309 12.355C22.0905 12.355 23.2512 12.7936 24.1354 13.6719C25.0199 14.5491 25.463 15.7001 25.463 16.8503C25.463 18.0002 25.0209 19.1505 24.1354 20.0284C23.2502 20.9067 22.0905 21.3453 20.9309 21.3453C19.7716 21.3453 18.6119 20.9067 17.7267 20.0284C16.8411 19.1512 16.399 18.0013 16.399 16.8503Z" fill="white"/>
</svg>
