<svg width="40" height="40" viewBox="0 0 40 40" fill="none" xmlns="http://www.w3.org/2000/svg">
<path d="M15.6058 10.6616H14.8114V8.27102C14.8114 7.35415 15.5522 6.6084 16.4639 6.6084H22.6583C23.5689 6.6084 24.3109 7.35415 24.3109 8.27102V10.6616H23.5161L23.514 8.27102C23.514 7.79484 23.1296 7.40735 22.6573 7.40735H16.4628C15.9905 7.40735 15.6058 7.79484 15.6058 8.27102V10.6616ZM28.3369 15.2575V13.2418C28.3369 12.7169 28.0757 12.2439 27.6625 11.918L26.6441 14.9712C27.2274 14.9848 27.7961 15.0825 28.3369 15.2585V15.2575ZM19.6548 25.9914C19.6416 25.9778 19.6218 25.958 19.6009 25.9381C19.5794 25.958 19.5523 25.984 19.5203 26.0164L17.1248 28.4258C16.9331 28.6185 16.8928 28.8675 16.8928 29.0425C16.8928 29.4143 17.0729 29.8185 17.3756 30.1228C17.9018 30.6508 18.6747 30.7677 19.0632 30.3771L21.4597 27.9674C21.4917 27.9353 21.5178 27.9082 21.5376 27.8863L19.6862 26.0227L19.6548 25.9914ZM30.146 24.6122C28.1373 26.6331 24.8674 26.6331 22.8576 24.6122C21.8848 23.6341 21.3481 22.3329 21.3481 20.9486C21.3481 19.5642 21.8837 18.263 22.8576 17.2849C23.8305 16.3058 25.1255 15.767 26.5015 15.767C27.8782 15.767 29.1721 16.3058 30.146 17.2849C32.155 19.3047 32.155 22.591 30.146 24.6122ZM28.4253 22.8828C28.939 22.3663 29.2218 21.6797 29.2218 20.9486C29.2218 20.2181 28.939 19.5319 28.4253 19.014C27.8949 18.4808 27.1985 18.214 26.5011 18.214C25.8051 18.214 25.1077 18.4808 24.5773 19.014C23.5185 20.0808 23.5185 21.8164 24.5773 22.8828C25.6382 23.9475 27.3644 23.9475 28.4243 22.8828H28.4253ZM27.1707 20.0067L26.1947 21.015L25.8528 20.6004C25.7129 20.4307 25.4622 20.4067 25.2931 20.5486C25.1244 20.6891 25.1004 20.9413 25.2413 21.111L25.8649 21.8672C25.9376 21.9548 26.0423 22.007 26.1554 22.0122H26.1707C26.2775 22.0122 26.3811 21.9684 26.4555 21.8912L27.7394 20.5642C27.8928 20.4056 27.8886 20.1528 27.7321 19.9994C27.5745 19.8453 27.3227 19.8494 27.1696 20.0067H27.1707ZM21.7355 24.5287L20.5307 25.7413L21.7355 26.9527L22.9415 25.7402C22.7168 25.5705 22.5001 25.3841 22.2949 25.1778C22.0917 24.9736 21.9042 24.7559 21.7345 24.5287H21.7355ZM17.4524 15.934C17.2163 15.934 17.0235 16.1277 17.0235 16.3649V18.6891C17.0235 18.9267 17.2163 19.1204 17.4524 19.1204H20.8354C21.0921 18.3141 21.5182 17.5684 22.0973 16.9288V16.3639C22.0973 16.1267 21.9046 15.9329 21.6674 15.9329H17.4524V15.934ZM20.5533 20.9486C20.5533 20.5997 20.5822 20.256 20.6402 19.9193H17.4524C16.778 19.9193 16.2288 19.3674 16.2288 18.6891V18.0362H14.5836C13.8851 18.0362 13.3578 17.6101 13.0997 16.8359L11.4587 11.9162C11.0444 12.2421 10.7832 12.7152 10.7832 13.2411V21.8143C10.7832 22.7955 11.6938 23.5945 12.8128 23.5945H21.1634C20.7644 22.782 20.5529 21.8821 20.5529 20.9496L20.5533 20.9486ZM14.5836 17.2359H16.2288V16.3642C16.2288 15.686 16.778 15.134 17.4524 15.134H21.667C22.2876 15.134 22.8016 15.6004 22.8813 16.2014C23.7289 15.5454 24.7286 15.1361 25.7919 15.0087L26.945 11.5503C26.7439 11.4919 26.5293 11.4595 26.3067 11.4595L12.8131 11.4616C12.5905 11.4616 12.377 11.494 12.1759 11.5524L13.8545 16.5837C14.0729 17.238 14.4573 17.238 14.5839 17.238L14.5836 17.2359Z" fill="white"/>
</svg>
