<svg width="40" height="40" viewBox="0 0 40 40" fill="none" xmlns="http://www.w3.org/2000/svg">
<path d="M19.1924 19.5392C19.1924 19.5392 19.2098 19.5806 19.2237 19.5973C20.0445 21.5479 18.601 23.7065 16.5071 23.7065C14.8863 23.7065 13.5645 22.3757 13.5645 20.7454C13.5645 19.1148 14.8863 17.7882 16.5071 17.7882C17.7071 17.7882 18.7367 18.5075 19.1924 19.5392ZM20.1628 19.8011C20.3471 20.5166 20.3228 21.3274 20.0445 22.0679H32.5628C33.0184 22.0679 33.3906 21.6936 33.3906 21.2359V20.7994C33.3906 20.2501 32.9454 19.8011 32.3958 19.8011H20.1628ZM29.8324 16.6484C29.3559 17.8087 27.7315 17.8421 27.2097 16.6981L26.5454 15.2383C25.4567 15.5753 24.6637 16.5941 24.6637 17.8004V18.9691H32.4515V17.8004C32.4515 16.5402 31.5819 15.4797 30.4202 15.1969L29.8324 16.6484ZM26.4098 11.9152C26.4098 13.1048 27.3732 14.0738 28.5558 14.0738C29.7419 14.0738 30.7054 13.1048 30.7054 11.9152C30.7054 10.726 29.7419 9.75658 28.5558 9.75658C27.3732 9.75658 26.4098 10.726 26.4098 11.9152ZM29.0637 16.3322L29.5541 15.118H27.3976L27.9611 16.3531C28.1698 16.8272 28.8654 16.8314 29.0637 16.3322ZM13.1715 12.2564V7.44041C13.1715 6.98267 13.5402 6.6084 13.9993 6.6084H21.9437C22.3993 6.6084 22.7715 6.98267 22.7715 7.44041V12.2564C22.7715 12.7141 22.3993 13.0884 21.9437 13.0884H21.1576C20.4584 13.0884 19.888 13.6623 19.888 14.3653C19.888 15.351 19.9054 15.3301 19.8637 15.351C19.8184 15.3719 19.968 15.4922 17.8811 13.4501C17.6411 13.2174 17.328 13.0884 16.9976 13.0884H13.9993C13.5402 13.0884 13.1715 12.7141 13.1715 12.2564ZM14.8584 8.65048C14.8584 8.88352 15.0428 9.06649 15.2724 9.06649H20.7715C20.9976 9.06649 21.1854 8.88352 21.1854 8.65048C21.1854 8.41778 20.9976 8.23448 20.7715 8.23448H15.2724C15.0428 8.23448 14.8584 8.42195 14.8584 8.65048ZM14.8584 11.0877C14.8584 11.3166 15.0428 11.5037 15.2724 11.5037H20.7715C20.9976 11.5037 21.1854 11.3166 21.1854 11.0877C21.1854 10.8592 20.9976 10.672 20.7715 10.672H15.2724C15.0428 10.672 14.8584 10.8592 14.8584 11.0877ZM21.7419 27.4957C21.7419 26.0192 20.5454 24.8174 19.0776 24.8174H13.9437C12.4724 24.8174 11.2793 26.0192 11.2793 27.4957V30.1075L21.7419 30.1201V27.4957ZM9.80452 30.9395L23.488 30.9562C23.7176 30.9562 23.9019 30.7691 23.9019 30.5402C23.9019 30.3117 23.7211 30.1242 23.488 30.1242H21.7419H11.2759L11.2793 30.1075L9.80452 30.1079C9.57843 30.1079 9.39062 30.295 9.39062 30.5235C9.39062 30.7524 9.57843 30.9395 9.80452 30.9395Z" fill="white"/>
</svg>
